HIERARCHY
ROOT Hips
{
	OFFSET 0.00 0.00 0.00
	CHANNELS 6 Xposition Yposition Zposition Xrotation Yrotation Zrotation
	JOINT Spine
	{
		OFFSET 0.00000 0.84964 1.27446
		CHANNELS 3 Xrotation Yrotation Zrotation
		JOINT Spine1
		{
			OFFSET 0.00000 0.29508 1.67346
			CHANNELS 3 Xrotation Yrotation Zrotation
			JOINT Spine2
			{
				OFFSET 0.00000 0.14810 1.69281
				CHANNELS 3 Xrotation Yrotation Zrotation
				JOINT Spine3
				{
					OFFSET 0.00000 0.00000 1.69928
					CHANNELS 3 Xrotation Yrotation Zrotation
					JOINT Neck
					{
						OFFSET 0.00000 -0.63723 4.46061
						CHANNELS 3 Xrotation Yrotation Zrotation
						JOINT Head
						{
							OFFSET 0.00000 -0.40573 2.30101
							CHANNELS 3 Xrotation Yrotation Zrotation
							End Site
							{
								OFFSET 0.00000 0.00000 2.75071
							}
						}
					}
					JOINT RightShoulder
					{
						OFFSET -0.72014 -1.20022 3.88874
						CHANNELS 3 Xrotation Yrotation Zrotation
						JOINT RightArm
						{
							OFFSET -3.57668 0.00000 0.00000
							CHANNELS 3 Xrotation Yrotation Zrotation
							JOINT RightForeArm
							{
								OFFSET -5.92485 0.00000 0.00000
								CHANNELS 3 Xrotation Yrotation Zrotation
								JOINT RightHand
								{
									OFFSET -6.63013 0.00000 0.00000
									CHANNELS 3 Xrotation Yrotation Zrotation
									JOINT RightHandEnd
									{
										OFFSET -1.65321 0.00000 0.00000
										CHANNELS 3 Xrotation Yrotation Zrotation
										End Site
										{
											OFFSET -1.65321 0.00000 0.00000
										}
									}
									JOINT RightHandThumb1
									{
										OFFSET -0.66129 -1.10214 -0.44086
										CHANNELS 3 Yrotation Xrotation Zrotation
										End Site
										{
											OFFSET -1.59688 -0.42788 0.00000
										}
									}
								}
							}
						}
					}
					JOINT LeftShoulder
					{
						OFFSET 0.72014 -1.20022 3.88874
						CHANNELS 3 Xrotation Yrotation Zrotation
						JOINT LeftArm
						{
							OFFSET 3.57668 0.00000 0.00000
							CHANNELS 3 Xrotation Yrotation Zrotation
							JOINT LeftForeArm
							{
								OFFSET 5.92485 0.00000 0.00000
								CHANNELS 3 Xrotation Yrotation Zrotation
								JOINT LeftHand
								{
									OFFSET 6.63013 0.00000 0.00000
									CHANNELS 3 Xrotation Yrotation Zrotation
									JOINT LeftHandEnd
									{
										OFFSET 1.65321 0.00000 0.00000
										CHANNELS 3 Xrotation Yrotation Zrotation
										End Site
										{
											OFFSET 1.65321 0.00000 0.00000
										}
									}
									JOINT LeftHandThumb1
									{
										OFFSET 0.66129 -1.10214 -0.44086
										CHANNELS 3 Yrotation Xrotation Zrotation
										End Site
										{
											OFFSET 1.59688 -0.42788 0.00000
										}
									}
								}
							}
						}
					}
				}
			}
		}
	}
	JOINT RightUpLeg
	{
		OFFSET -2.13640 0.00000 -0.62412
		CHANNELS 3 Xrotation Yrotation Zrotation
		JOINT RightLeg
		{
			OFFSET 0.00000 0.00000 -11.49360
			CHANNELS 3 Xrotation Yrotation Zrotation
			JOINT RightFoot
			{
				OFFSET 0.00000 0.00000 -8.79036
				CHANNELS 3 Xrotation Yrotation Zrotation
				JOINT RightToeBase
				{
					OFFSET 0.00000 -3.94625 -1.43632
					CHANNELS 3 Xrotation Yrotation Zrotation
					End Site
					{
						OFFSET 0.00000 -1.72833 -0.00000
					}
				}
			}
		}
	}
	JOINT LeftUpLeg
	{
		OFFSET 2.13640 0.00000 -0.62412
		CHANNELS 3 Xrotation Yrotation Zrotation
		JOINT LeftLeg
		{
			OFFSET 0.00000 0.00000 -11.49360
			CHANNELS 3 Xrotation Yrotation Zrotation
			JOINT LeftFoot
			{
				OFFSET 0.00000 0.00000 -8.79036
				CHANNELS 3 Xrotation Yrotation Zrotation
				JOINT LeftToeBase
				{
					OFFSET 0.00000 -3.94625 -1.43632
					CHANNELS 3 Xrotation Yrotation Zrotation
					End Site
					{
						OFFSET 0.00000 -1.72833 -0.00000
					}
				}
			}
		}
	}
}
MOTION
Frames: 7
Frame Time: 0.008342
 -4.0297 -113.4170 23.2091 -1.6089 -3.0798 -177.4120 -2.4319 -4.2473 -0.9920 0.2789 -1.9285 -1.0797 2.6936 -3.9224 -0.9424 0.8112 3.3817 -2.9971 2.3313 16.4453 -2.6827 1.4583 -4.2359 -15.9946 148.3019 -1.2927 176.4277 -149.6930 -3.2104 7.9137 0.0000 0.0000 4.6586 100.8756 -14.7431 8.5435 -0.0000 0.0000 -0.0000 -0.0000 -0.0000 -0.0000 152.0208 7.2972 -173.9683 -172.6732 1.4458 -1.3292 -0.0000 -0.0000 -1.6451 -11.3922 -7.6091 -0.1773 0.0000 0.0000 -0.0000 -0.0000 -0.0000 0.0000 -3.6785 2.5498 -65.1898 2.3257 0.0000 0.0000 -1.3343 -2.1642 48.1932 -0.5974 0.0000 -0.0000 2.7114 0.7477 13.5143 -7.8748 0.0000 -0.0000 0.5658 -7.1969 -9.9035 -7.8888 0.0000 -0.0000
 -4.0313 -113.3806 23.2103 0.6685 -3.0415 -177.2449 0.2046 -4.3815 -0.9999 0.1548 -1.8468 -0.9531 2.4287 -3.6828 -1.2050 0.7116 3.0917 -2.7265 2.4744 16.3913 -2.8216 1.5456 -4.1151 -15.9635 150.4833 -1.7897 176.5334 -140.5490 -1.6692 7.7599 0.0000 0.0000 5.3364 95.6790 -15.7947 8.7404 0.0000 0.0000 -0.0000 -0.0000 0.0000 -0.0000 152.0610 6.6629 -173.9363 -172.8248 1.8649 -1.4799 -0.0000 -0.0000 -1.7028 -11.6366 -4.8630 0.6014 0.0000 0.0000 0.0000 0.0000 -0.0000 0.0000 -1.1846 2.4293 -66.0434 2.1709 0.0000 0.0000 -1.2508 -2.3502 48.9918 -0.5641 0.0000 -0.0000 5.3546 0.7054 13.2713 -8.3504 0.0000 -0.0000 0.7669 -7.1128 -9.6992 -7.9179 0.0000 -0.0000
 -4.0317 -113.3817 23.2105 0.8908 -3.0474 -177.1733 0.4708 -4.3923 -1.0073 0.1477 -1.8462 -0.9425 2.4145 -3.6176 -1.2440 0.7075 3.0846 -2.7122 2.5155 16.3045 -2.8533 1.5968 -4.0956 -15.9402 151.0043 -1.9018 176.5523 -138.2872 -1.3372 7.6190 0.0000 0.0000 5.5229 94.4812 -16.0778 8.7580 0.0000 0.0000 -0.0000 -0.0000 -0.0000 0.0000 152.0479 6.7135 -173.8854 -172.6821 1.8617 -1.5097 -0.0000 -0.0000 -1.7246 -11.4632 -4.2694 0.5481 -0.0000 0.0000 -0.0000 0.0000 -0.0000 0.0000 -0.9415 2.3980 -66.1729 2.1228 0.0000 0.0000 -1.2042 -2.3741 49.0588 -0.5360 0.0000 -0.0000 5.5947 0.6841 13.1274 -8.3971 0.0000 -0.0000 0.8056 -7.1346 -9.6136 -7.9124 0.0000 -0.0000
 -4.0326 -113.3879 23.2104 0.9061 -3.0455 -177.1142 0.5075 -4.3871 -1.0024 0.1581 -1.8399 -0.9408 2.4192 -3.5739 -1.2713 0.7178 3.1311 -2.7317 2.5399 16.1818 -2.8671 1.6496 -4.0846 -15.9060 151.0849 -1.8811 176.5786 -137.8010 -1.3090 7.5667 0.0000 0.0000 5.5480 94.3281 -16.1493 8.7899 -0.0000 -0.0000 0.0000 0.0000 -0.0000 -0.0000 152.0064 6.7929 -173.8224 -172.4691 1.9299 -1.5488 -0.0000 -0.0000 -1.7849 -11.2951 -4.1890 0.5944 -0.0000 0.0000 -0.0000 0.0000 -0.0000 0.0000 -0.9355 2.4057 -66.1902 2.1279 0.0000 0.0000 -1.1990 -2.3726 49.0175 -0.5056 0.0000 -0.0000 5.5891 0.6812 13.0306 -8.3986 0.0000 -0.0000 0.8272 -7.1585 -9.5757 -7.9035 0.0000 -0.0000
 -4.0335 -113.3949 23.2104 0.9240 -3.0411 -177.0482 0.5513 -4.3799 -0.9992 0.1702 -1.8361 -0.9389 2.4254 -3.5162 -1.2980 0.7290 3.1847 -2.7539 2.5653 16.0415 -2.8859 1.7120 -4.0743 -15.8682 151.1465 -1.8485 176.6134 -137.5284 -1.3173 7.5181 0.0000 0.0000 5.5323 94.3502 -16.1465 8.8406 0.0000 -0.0000 -0.0000 -0.0000 -0.0000 0.0000 151.9605 6.8882 -173.7447 -172.2444 2.0012 -1.5914 -0.0000 -0.0000 -1.8452 -11.1174 -4.0714 0.6422 -0.0000 -0.0000 -0.0000 -0.0000 -0.0000 0.0000 -0.9290 2.4183 -66.1989 2.1385 0.0000 0.0000 -1.2026 -2.3649 48.9633 -0.4715 0.0000 -0.0000 5.5829 0.6798 12.9184 -8.3996 0.0000 -0.0000 0.8518 -7.1805 -9.5290 -7.8818 0.0000 -0.0000
 -4.0344 -113.4028 23.2103 0.9448 -3.0334 -176.9795 0.6035 -4.3684 -0.9956 0.1828 -1.8335 -0.9371 2.4330 -3.4497 -1.3271 0.7413 3.2423 -2.7781 2.5882 15.8902 -2.9049 1.7814 -4.0607 -15.8230 151.1817 -1.8012 176.6494 -137.3204 -1.3383 7.4712 0.0000 0.0000 5.5091 94.4214 -16.1343 8.8949 -0.0000 -0.0000 -0.0000 0.0000 -0.0000 0.0000 151.9148 6.9983 -173.6608 -172.0160 2.0711 -1.6371 -0.0000 -0.0000 -1.9043 -10.9196 -3.9256 0.6809 -0.0000 -0.0000 -0.0000 -0.0000 0.0000 -0.0000 -0.9224 2.4372 -66.1816 2.1573 0.0000 0.0000 -1.2177 -2.3506 48.8828 -0.4345 0.0000 -0.0000 5.5775 0.6808 12.7966 -8.3997 0.0000 -0.0000 0.8782 -7.1989 -9.4757 -7.8500 0.0000 -0.0000
 -4.0354 -113.4111 23.2102 0.9675 -3.0233 -176.9126 0.6609 -4.3544 -0.9907 0.1965 -1.8302 -0.9355 2.4428 -3.3772 -1.3568 0.7548 3.3039 -2.8045 2.6072 15.7305 -2.9233 1.8557 -4.0485 -15.7732 151.1983 -1.7424 176.6877 -137.1301 -1.3570 7.4262 0.0000 0.0000 5.4836 94.4994 -16.1210 8.9453 0.0000 0.0000 0.0000 -0.0000 -0.0000 0.0000 151.8691 7.1172 -173.5734 -171.7897 2.1450 -1.6844 -0.0000 -0.0000 -1.9644 -10.7333 -3.7825 0.7210 0.0000 -0.0000 0.0000 0.0000 -0.0000 0.0000 -0.9169 2.4611 -66.1311 2.1839 0.0000 0.0000 -1.2428 -2.3304 48.7731 -0.3934 0.0000 -0.0000 5.5733 0.6842 12.6755 -8.3999 0.0000 -0.0000 0.9056 -7.2118 -9.4209 -7.8066 0.0000 -0.0000
